<mxfile host="app.diagrams.net" modified="2023-04-30T14:17:38.669Z" agent="Mozilla/5.0 (Windows NT 10.0; Win64; x64) AppleWebKit/537.36 (KHTML, like Gecko) Chrome/112.0.0.0 Safari/537.36 Edg/112.0.1722.64" version="21.2.3" etag="A9y0YwWZRMh8jsqc5y9V" type="github">
  <diagram name="Page-1" id="jOHrJ59w8RnciJAaAWkY">
    <mxGraphModel>
      <root>
        <mxCell id="0" />
        <mxCell id="1" parent="0" />
      </root>
    </mxGraphModel>
  </diagram>
</mxfile>
